# xmcd CD database file
#
# Track frame offsets:
#	150
#	17992
#	53642
#	72079
#	87891
#	104295
#	128745
#	149111
#
# Disc length: 2634 seconds
#
# Revision: 0
# Processed by: cddbd v1.5.2PL0 Copyright (c) Steve Scherf et al.
# Submitted via: CDex 1.51
#
DISCID=6d0a4808
DTITLE=Alan Skidmore, Mike Osborne, John Surman - SOS
DYEAR=1975
DGENRE=Jazz
TTITLE0=Country Dance
TTITLE1=Wherever I Am
TTITLE2=Chordary
TTITLE3=Where's Junior
TTITLE4=Cycle Motion
TTITLE5=1st
TTITLE6=Goliath
TTITLE7=Calypso
EXTD=YEAR: 1975
EXTT0=
EXTT1=
EXTT2=
EXTT3=
EXTT4=
EXTT5=
EXTT6=
EXTT7=
PLAYORDER=
